<svg xmlns="http://www.w3.org/2000/svg" width="200" height="200" viewBox="0 0 20 20">
  <defs>
    <mask id="telegram-mask">
      <rect width="20" height="20" fill="white"/>
      <path fill="black" d="M14.442 6c-.381.007-.966.207-3.779 1.362a485.41 485.41 0 0 0-5.907 2.512c-.48.189-.73.373-.753.553c-.044.346.46.453 1.094.657c.517.166 1.213.36 1.575.368c.328.007.694-.127 1.098-.4c2.76-1.84 4.183-2.769 4.273-2.789c.063-.014.15-.032.21.02c.059.052.053.15.046.177c-.05.211-2.641 2.538-2.79 2.691l-.072.072c-.55.543-1.105.898-.147 1.521c.866.563 1.37.922 2.26 1.5c.57.368 1.017.805 1.605.752c.271-.025.55-.276.693-1.026c.335-1.77.995-5.608 1.147-7.19a1.742 1.742 0 0 0-.017-.393a.42.42 0 0 0-.144-.27c-.121-.098-.309-.118-.392-.117Z"/>
    </mask>
  </defs>
  <rect x="0" y="0" width="20" height="20" rx="4" fill="#8B8B8B" mask="url(#telegram-mask)"/>
</svg>